<?xml version="1.0" encoding="utf-8"?>
<!-- Generator: Adobe Illustrator 22.0.1, SVG Export Plug-In . SVG Version: 6.00 Build 0)  -->
<svg version="1.1" id="Layer_1" xmlns="http://www.w3.org/2000/svg" xmlns:xlink="http://www.w3.org/1999/xlink" x="0px" y="0px"
	 viewBox="0 0 1352.3 512" style="enable-background:new 0 0 1352.3 512;" xml:space="preserve">
<style type="text/css">
	.st0{fill:url(#SVGID_1_);}
	.st1{fill:url(#SVGID_2_);}
	.st2{fill:#FFFFFF;}
	.st3{clip-path:url(#SVGID_6_);fill:#FFFFFF;}
	.st4{clip-path:url(#SVGID_8_);fill:#FFFFFF;}
</style>
<g id="approved_color_PMS_Blue_x5F_Process_Green">
	<g>
		
			<linearGradient id="SVGID_1_" gradientUnits="userSpaceOnUse" x1="968.8278" y1="501.89" x2="968.8278" y2="309.89" gradientTransform="matrix(1 0 5.240778e-02 -1 -10.4496 511.89)">
			<stop  offset="0.3132" style="stop-color:#FFFFFF"/>
			<stop  offset="0.4247" style="stop-color:#FFFFFF"/>
			<stop  offset="0.5535" style="stop-color:#FFFFFF"/>
			<stop  offset="0.6909" style="stop-color:#FFFFFF"/>
			<stop  offset="0.8333" style="stop-color:#FFFFFF"/>
			<stop  offset="0.924" style="stop-color:#FFFFFF"/>
		</linearGradient>
		<polygon class="st0" points="839.5,10 1003,10 1119.8,202 997.1,202 		"/>
		
			<linearGradient id="SVGID_2_" gradientUnits="userSpaceOnUse" x1="950.2045" y1="291.89" x2="950.2045" y2="123.89" gradientTransform="matrix(1 0 5.240778e-02 -1 -10.4496 511.89)">
			<stop  offset="0" style="stop-color:#FFFFFF"/>
			<stop  offset="0.1583" style="stop-color:#FFFFFF"/>
			<stop  offset="0.3412" style="stop-color:#FFFFFF"/>
			<stop  offset="0.5363" style="stop-color:#FFFFFF"/>
			<stop  offset="0.7386" style="stop-color:#FFFFFF"/>
			<stop  offset="0.8674" style="stop-color:#FFFFFF"/>
		</linearGradient>
		<polygon class="st1" points="1116,220 834.4,388 785.3,388 993.2,220 		"/>
		<polygon class="st2" points="113.7,501.6 128.4,429.4 127.9,429.4 81.3,501.6 60,501.6 42.4,429.4 41.8,429.4 28.5,501.6 0,501.6 
			19.8,399.6 62.9,399.6 78.8,465 79.5,465 119.5,399.6 163.3,399.6 143.5,501.6 		"/>
		<path class="st2" d="M342.7,501.6l-5.9-20h-48.5l-13.1,20h-32.9l72.4-102h29.4l32.3,102H342.7z M323.6,426.8l-22.7,35h31.5
			L323.6,426.8z"/>
		<g>
			<path class="st2" d="M542.5,501.6l-19.4-40.5h-10.3l-7.9,40.5h-29.6l19.8-102H543c6,0,11.8,0.5,17.3,1.5s10.3,2.7,14.4,5.1
				c4.1,2.4,7.1,5.6,9,9.5s2.4,8.8,1.2,14.7c-1.3,6.9-4.8,12.7-10.3,17.4c-5.5,4.7-12.5,8.1-21.1,10.1l24.3,43.6L542.5,501.6
				L542.5,501.6z M555,430.9c0.5-2.4,0.2-4.3-0.7-5.8c-1-1.5-2.3-2.6-4.1-3.5c-1.8-0.8-3.9-1.4-6.3-1.7c-2.4-0.3-4.7-0.4-6.9-0.4
				h-16.2l-4.6,23.8h14.4c2.5,0,5.1-0.2,7.8-0.5s5.2-0.9,7.5-1.8s4.3-2.1,6-3.7C553.4,435.6,554.5,433.4,555,430.9"/>
			<polygon class="st2" points="758.5,501.6 719.4,457.9 711,501.6 681.4,501.6 701.2,399.6 730.8,399.6 721.5,441.2 772.1,399.6 
				814,399.6 740.3,446.6 794.6,501.6 			"/>
			<polygon class="st2" points="892.3,501.6 912.1,399.6 996.4,399.6 992.4,420.3 937.3,420.3 933.6,439.6 985.7,439.6 981.8,459.4 
				929.7,459.4 925.6,480.5 983.9,480.5 979.8,501.6 			"/>
			<polygon class="st2" points="1165.1,420.6 1149.4,501.6 1119.1,501.6 1134.8,420.6 1099.4,420.6 1103.5,399.6 1204.6,399.6 
				1200.6,420.6 			"/>
		</g>
		<g>
			<g>
				<polygon id="SVGID_3_" class="st2" points="1048.8,280.5 1093.3,336 1203.5,336 1136.1,227.6 				"/>
			</g>
			<g>
				<defs>
					<polygon id="SVGID_4_" points="1048.8,280.5 1093.3,336 1203.5,336 1136.1,227.6 					"/>
				</defs>
				<clipPath id="SVGID_6_">
					<use xlink:href="#SVGID_4_"  style="overflow:visible;"/>
				</clipPath>
				<polygon class="st3" points="1209.2,227.6 1203.5,336 1043.1,336 1048.8,227.6 				"/>
			</g>
		</g>
		<g>
			<g>
				<polygon id="SVGID_5_" class="st2" points="1147.1,74.5 1096.9,121.9 1142.8,198.8 1354.3,74.3 				"/>
			</g>
			<g>
				<defs>
					<polygon id="SVGID_7_" points="1147.1,74.5 1096.9,121.9 1142.8,198.8 1354.3,74.3 					"/>
				</defs>
				<clipPath id="SVGID_8_">
					<use xlink:href="#SVGID_7_"  style="overflow:visible;"/>
				</clipPath>
				<polygon class="st4" points="1354.3,60.9 1354.3,198.8 1096.9,212.2 1096.9,74.3 				"/>
			</g>
		</g>
		<g>
			<path class="st2" d="M341.7,75.7h121l-30.1,156.4c-3,15.5-9.5,30.2-19.7,43.9c-10.2,13.8-24.2,25.8-42.3,36.2
				c-18,10.3-36.2,17.6-54.7,21.7c-25.6,5.8-55.5,8.8-89.8,8.8c-19.8,0-41.3-0.9-64.4-2.7c-23.1-1.8-42-5.3-56.8-10.7
				C90.2,324,77.2,316.4,66,306.7c-11-9.7-18-19.8-20.9-30.1c-4.6-16.7-5.6-31.5-3.2-44.4L72,75.7h121l-30.8,160.1
				c-2.8,14.3,5.9,25.5,16.7,33.6s27.1,12.1,49,12.1c21.7,0,39.5-4,53.3-11.9c13.9-7.9,26.8-19.2,29.6-33.7L341.7,75.7z"/>
			<path class="st2" d="M581.6,262.7h260.1l-15.1,73.9H585.2c-21.8,0-41.3-2.8-58.5-8.3s-31.4-13.8-42.7-24.7
				c-11.3-10.9-19-24.5-23.3-40.9c-4.3-16.3-4.2-35.1,0.1-56.4c4.4-21.6,12.1-40.5,23.1-56.8c10.9-16.3,24.3-29.9,40-40.8
				s33.3-19.2,52.8-24.7s40.1-8.3,61.9-8.3H880l-16.3,79.7H603.6L581.6,262.7z"/>
		</g>
	</g>
</g>
</svg>
